<?xml version="1.0" encoding="iso-8859-1"?>
<!-- Generator: Adobe Illustrator 19.0.0, SVG Export Plug-In . SVG Version: 6.00 Build 0)  -->
<svg version="1.1" id="Capa_1" xmlns="http://www.w3.org/2000/svg" xmlns:xlink="http://www.w3.org/1999/xlink" x="0px" y="0px"
	 viewBox="0 0 488.9 488.9" style="enable-background:new 0 0 488.9 488.9;" xml:space="preserve">
<g>
	<path id="music-icon-path" d="M488.9,48.35c0-11.4-9.4-20.8-20.8-20.8H166.4c-11.4,0-20.8,9.4-20.8,20.8v271.9c-14.8-8.1-32.7-12.9-52-12.9
		c-52,0-93.6,34.3-93.6,77s41.6,77,93.6,77s93.6-34.3,93.6-77l0,0l0,0V69.15h260.1v251.1c-14.8-8.1-32.7-12.9-52-12.9
		c-52,0-93.6,34.3-93.6,77s41.6,77,93.6,77s93.6-34.3,93.6-77l0,0l0,0V48.35z M93.6,421.85c-29.1,0-53.1-16.6-53.1-36.4
		s23.9-36.4,53.1-36.4c29.1,0,53.1,16.6,53.1,36.4C146.6,405.15,122.7,421.85,93.6,421.85z M395.2,421.85
		c-29.1,0-53.1-16.6-53.1-36.4s23.9-36.4,53.1-36.4c28.1,0,53.1,16.6,53.1,36.4C448.3,405.15,424.4,421.85,395.2,421.85z"/>
</g>

</svg>
