<?xml version="1.0" encoding="iso-8859-1"?>
<!-- Generator: Adobe Illustrator 19.0.0, SVG Export Plug-In . SVG Version: 6.00 Build 0)  -->
<svg version="1.1" id="Layer_1" xmlns="http://www.w3.org/2000/svg" xmlns:xlink="http://www.w3.org/1999/xlink" x="0px" y="0px"
	 viewBox="0 0 511.998 511.998" style="enable-background:new 0 0 511.998 511.998;" xml:space="preserve">
<g>
	<g>
		<path id="saxophone-main-path" d="M462.687,340.574L271.151,140.915c-6.59-6.869-17.498-7.094-24.364-0.505c-6.868,6.589-7.094,17.496-0.505,24.364
			l7.78,8.11c-0.32,0.301-0.638,0.602-0.948,0.916c-7.688,7.818-14.273,16.233-19.923,25.043
			c-2.286-36.813-3.661-63.059-4.669-82.263c-2.659-50.708-3.073-58.602-13.597-76.115c-7.567-12.769-18.595-23.26-31.901-30.342
			C170.581,3.5,156.421,0,142.072,0c-28.716,0-54.92,13.48-71.894,36.986c-0.414,0.573-0.81,1.16-1.187,1.758
			C56.154,59.101,55.894,75.663,55.665,90.276c-0.064,4.098-0.131,8.335-0.483,12.933c-0.093,1.218-0.117,2.434-0.079,3.643
			c-6.218,2.601-10.589,8.739-10.589,15.901c0,9.517,7.716,17.232,17.232,17.232H118.4c1.169,0,2.309-0.119,3.413-0.341
			c-0.007,0.556-0.014,1.117-0.02,1.688c-0.09,7.268-0.193,15.656-0.303,25.357h-13.112c-9.517,0-17.232,7.716-17.232,17.232
			s7.716,17.232,17.232,17.232h11.813l-0.968,14.536c-0.231,3.204-0.455,6.311-0.677,9.369h-18.22
			c-0.648-8.925-8.078-15.97-17.169-15.97c-9.517,0-17.232,7.716-17.232,17.232v32.276c0,9.517,7.716,17.232,17.232,17.232
			c9.204,0,16.702-7.223,17.186-16.306h15.704c-2.936,40.277-5.091,69.084-7.986,107.78l0.032,0.002
			c-0.064,0.785-0.105,1.588-0.12,2.412c-1.431,23.296-1.448,49.561,8.289,70.02c9.807,25.23,26.723,44.023,51.667,57.415
			c18.35,9.852,37.697,14.847,57.504,14.847c17.749,0,35.712-4.031,53.391-11.978c13.627-6.126,27.133-14.609,40.144-25.212
			c20.932-17.058,36.195-36.176,41.915-44.783c0.191-0.287,0.378-0.578,0.56-0.871c29.138-46.908,61.465-68.912,61.784-69.12
			c2.117-1.39,4.049-3.002,5.775-4.792l8.817,9.191c3.383,3.527,7.907,5.303,12.437,5.303c4.291,0,8.586-1.593,11.927-4.797
			C469.048,358.35,469.275,347.442,462.687,340.574z M332.749,411.331c-6.82,10.263-51.065,66.892-107.318,66.892
			c-13.284,0-27.237-3.157-41.526-10.83c-19.222-10.321-30.12-23.594-36.646-41.164c-7.694-14.844-6.444-40.683-5.524-55.262
			c0.002,0.107,0.003,0.152,0.003,0.152c0.007,0-0.004-1.3,0.002-1.3c0,0,0,0.001,0.001,0.005
			c3.99-53.324,6.458-86.356,11.177-151.799c0.725-10.889,1.441-21.644,2.146-32.224c0.728-72.649,1.393-85.363,0.06-101.43
			c-1.084-12.514-9.39-18.389-15.389-18.389c-0.017,0-0.034,0-0.052,0c-11.751,0.066-16.784,8.817-18.779,14.874
			c-1.522,4.037-2.772,13.458-1.94,24.694c-0.189-0.006-0.374-0.028-0.564-0.028H88.879c1.591-21.232-1.828-32.095,8.683-48.762
			c11.32-15.675,28.142-22.982,44.51-22.982c17.596,0,34.666,8.436,43.84,23.987c10.801,17.939,3.246,11.028,21.582,260.638
			c0.034,0.457,3.881,53.847,4.234,53.847c0.001,0,0.002,0,0.003-0.001c0.79,0.739-0.697,15.665,10.758,15.665
			c0.078,0,0.155-0.001,0.235-0.002c19.076-0.334-9.371-125.499,54.472-190.429l119.171,125.556l8.317,8.763
			C404.686,331.8,366.632,356.787,332.749,411.331z"/>
	</g>
</g>
</svg>
